{
  "accessors": [
    {
      "bufferView": 2,
      "componentType": 5126,
      "count": 3058,
      "max": [
        0.6931490898132324,
        0.8127869963645935,
        0.17476116120815277
      ],
      "min": [
        -0.6931490898132324,
        -1.3275929632072803e-05,
        -0.1829645037651062
      ],
      "type": "VEC3"
    },
    {
      "bufferView": 2,
      "byteOffset": 36696,
      "componentType": 5126,
      "count": 3058,
      "max": [
        1.0,
        1.0,
        1.0
      ],
      "min": [
        -1.0,
        -1.0,
        -1.0
      ],
      "type": "VEC3"
    },
    {
      "bufferView": 3,
      "componentType": 5126,
      "count": 3058,
      "max": [
        1.0,
        1.0,
        1.0,
        1.0
      ],
      "min": [
        -1.0,
        -1.0,
        -1.0,
        -1.0
      ],
      "type": "VEC4"
    },
    {
      "bufferView": 1,
      "componentType": 5126,
      "count": 3058,
      "max": [
        1.9089221954345703,
        0.9844200611114502
      ],
      "min": [
        0.009995016269385815,
        0.010000914335250854
      ],
      "type": "VEC2"
    },
    {
      "bufferView": 1,
      "byteOffset": 24464,
      "componentType": 5126,
      "count": 3058,
      "max": [
        1.9089221954345703,
        0.9844200611114502
      ],
      "min": [
        0.009995016269385815,
        0.010000914335250854
      ],
      "type": "VEC2"
    },
    {
      "bufferView": 1,
      "byteOffset": 48928,
      "componentType": 5126,
      "count": 3058,
      "max": [
        1.9089221954345703,
        0.9844200611114502
      ],
      "min": [
        0.009995016269385815,
        0.010000914335250854
      ],
      "type": "VEC2"
    },
    {
      "bufferView": 1,
      "byteOffset": 73392,
      "componentType": 5126,
      "count": 3058,
      "max": [
        1.9089221954345703,
        0.9844200611114502
      ],
      "min": [
        0.009995016269385815,
        0.010000914335250854
      ],
      "type": "VEC2"
    },
    {
      "bufferView": 0,
      "componentType": 5125,
      "count": 10194,
      "type": "SCALAR"
    }
  ],
  "asset": {
    "extras": {
      "author": "Brandon Westlake (https://sketchfab.com/dr.badass2142)",
      "license": "SKETCHFAB Standard (https://sketchfab.com/licenses)",
      "source": "https://sketchfab.com/3d-models/accent-chest-free-9804b0e38c274242bcbc41edb8e4fbc6",
      "title": "Accent Chest (FREE)"
    },
    "generator": "Sketchfab-15.50.0",
    "version": "2.0"
  },
  "bufferViews": [
    {
      "buffer": 0,
      "byteLength": 40776,
      "name": "floatBufferViews",
      "target": 34963
    },
    {
      "buffer": 0,
      "byteLength": 97856,
      "byteOffset": 40776,
      "byteStride": 8,
      "name": "floatBufferViews",
      "target": 34962
    },
    {
      "buffer": 0,
      "byteLength": 73392,
      "byteOffset": 138632,
      "byteStride": 12,
      "name": "floatBufferViews",
      "target": 34962
    },
    {
      "buffer": 0,
      "byteLength": 48928,
      "byteOffset": 212024,
      "byteStride": 16,
      "name": "floatBufferViews",
      "target": 34962
    }
  ],
  "buffers": [
    {
      "byteLength": 260952,
      "uri": "scene.bin"
    }
  ],
  "extensionsUsed": [
    "KHR_materials_specular"
  ],
  "images": [
    {
      "uri": "textures/accent_cabinet_Mat_baseColor.jpeg"
    },
    {
      "uri": "textures/accent_cabinet_Mat_metallicRoughness.png"
    },
    {
      "uri": "textures/accent_cabinet_Mat_normal.jpeg"
    },
    {
      "uri": "textures/accent_cabinet_Mat_specularf0.png"
    }
  ],
  "materials": [
    {
      "doubleSided": true,
      "extensions": {
        "KHR_materials_specular": {
          "specularColorFactor": [
            1.0,
            1.0,
            1.0
          ],
          "specularFactor": 1.0,
          "specularTexture": {
            "index": 3
          }
        }
      },
      "name": "accent_cabinet_Mat",
      "normalTexture": {
        "index": 2
      },
      "occlusionTexture": {
        "index": 1,
        "strength": 0.5520483525065376
      },
      "pbrMetallicRoughness": {
        "baseColorTexture": {
          "index": 0
        },
        "metallicRoughnessTexture": {
          "index": 1
        }
      }
    }
  ],
  "meshes": [
    {
      "name": "Object_0",
      "primitives": [
        {
          "attributes": {
            "NORMAL": 1,
            "POSITION": 0,
            "TANGENT": 2,
            "TEXCOORD_0": 3,
            "TEXCOORD_1": 4,
            "TEXCOORD_2": 5,
            "TEXCOORD_3": 6
          },
          "indices": 7,
          "material": 0,
          "mode": 4
        }
      ]
    }
  ],
  "nodes": [
    {
      "children": [
        1
      ],
      "matrix": [
        1.0,
        0.0,
        0.0,
        0.0,
        0.0,
        2.220446049250313e-16,
        -1.0,
        0.0,
        0.0,
        1.0,
        2.220446049250313e-16,
        0.0,
        0.0,
        0.0,
        0.0,
        1.0
      ],
      "name": "Sketchfab_model"
    },
    {
      "children": [
        2
      ],
      "name": "root"
    },
    {
      "children": [
        3
      ],
      "matrix": [
        1.0,
        0.0,
        0.0,
        0.0,
        0.0,
        2.220446049250313e-16,
        1.0,
        0.0,
        0.0,
        -1.0,
        2.220446049250313e-16,
        0.0,
        0.0,
        0.0,
        0.0,
        1.0
      ],
      "name": "GLTF_SceneRootNode"
    },
    {
      "children": [
        4
      ],
      "name": "accent_cabinet_pfo_bsw_0"
    },
    {
      "mesh": 0,
      "name": "Object_4"
    }
  ],
  "samplers": [
    {
      "magFilter": 9729,
      "minFilter": 9987,
      "wrapS": 10497,
      "wrapT": 10497
    }
  ],
  "scene": 0,
  "scenes": [
    {
      "name": "Sketchfab_Scene",
      "nodes": [
        0
      ]
    }
  ],
  "textures": [
    {
      "sampler": 0,
      "source": 0
    },
    {
      "sampler": 0,
      "source": 1
    },
    {
      "sampler": 0,
      "source": 2
    },
    {
      "sampler": 0,
      "source": 3
    }
  ]
}
